<?xml version="1.0" encoding="UTF-8"?>
<svg width="120" height="40" viewBox="0 0 120 40" fill="none" xmlns="http://www.w3.org/2000/svg">
  <path d="M20 8C13.373 8 8 13.373 8 20C8 26.627 13.373 32 20 32C26.627 32 32 26.627 32 20C32 13.373 26.627 8 20 8ZM20 30C14.477 30 10 25.523 10 20C10 14.477 14.477 10 20 10C25.523 10 30 14.477 30 20C30 25.523 25.523 30 20 30Z" fill="#FFFFFF"/>
  <path d="M45 15V25H47V15H45ZM52 15V17H54V23H52V25H56V15H52ZM60 15V25H62V15H60ZM67 15V17H69V23H67V25H71V15H67ZM75 15V25H77V15H75Z" fill="#FFFFFF"/>
  <path d="M85 15V25H87V21H90V19H87V17H91V15H85ZM95 15V25H101V23H97V21H100V19H97V17H101V15H95Z" fill="#FFFFFF"/>
  <path d="M105 15V25H111V23H107V15H105Z" fill="#FFFFFF"/>
</svg> 